{"title":"GirlsDoPorn - Years Old","uid":8845497,"size":1549180906,"categoryP":"porn","categoryS":"movie_clips","magnet":"?xt=urn:btih:825372654ada745722a2e2fa70e47797ff0f5495&amp;dn=GirlsDoPorn+-+Years+Old&amp;tr=udp%3A%2F%2Ftracker.openbittorrent.com%3A80&amp;tr=udp%3A%2F%2Fopen.demonii.com%3A1337&amp;tr=udp%3A%2F%2Ftracker.coppersurfer.tk%3A6969&amp;tr=udp%3A%2F%2Fexodus.desync.com%3A6969","seeders":0,"leechers":1,"uploader":"R0thschild","files":1,"time":1377369771,"description":"Screenshots: &lt;a href=&quot;\nhttp://imgtou.com/viewshare.php?file=45787880037.png&quot; rel=&quot;nofollow&quot; target=&quot;_NEW&quot;&gt;\nhttp://imgtou.com/viewshare.php?file=45787880037.png&lt;/a&gt; &lt;a href=&quot;\nhttp://imgtou.com/viewshare.php?file=70303175319.png&quot; rel=&quot;nofollow&quot; target=&quot;_NEW&quot;&gt;\nhttp://imgtou.com/viewshare.php?file=70303175319.png&lt;/a&gt;\n\nGenre: Adult\nDate: 2013-08-23\nURL: http://www.girlsdoporn.com/\n\nVideo \nID : 2 \nFormat : VC-1 \nFormat profile : MP@HL \nCodec ID : WMV3 \nCodec ID/Info : Windows Media Video 9 \nCodec ID/Hint : WMV3 \nDescription of the codec : Windows Media Video 9 - Professional \nDuration : 43mn 18s \nBit rate mode : Constant \nBit rate : 5 000 Kbps \nWidth : 1 280 pixels \nHeight : 720 pixels \nDisplay aspect ratio : 16:9 \nFrame rate : 29.970 fps \nBit depth : 8 bits \nCompression mode : Lossy \nBits/(Pixel*Frame) : 0.181 \nStream size : 1.51 GiB \nLanguage : English (US) \nNumberOfFrames : 77850 \n\nAudio \nID : 1 \nFormat : WMA \nFormat profile : Pro \nCodec ID : 162 \nCodec ID/Info : Windows Media Audio \nDescription of the codec : Windows Media Audio 10 Professional - 440 kbps, 44 kHz, 2 channel 24 bit 2-pass VBR \nDuration : 43mn 18s \nBit rate mode : Variable \nBit rate : 309 Kbps \nChannel(s) : 2 channels \nSampling rate : 44.1 KHz \nBit depth : 24 bits \nStream size : 95.8 MiB (6%) \nLanguage : English (US) \nNumberOfFrames : 4899 ","torrent":{"xt":"urn:btih:825372654ada745722a2e2fa70e47797ff0f5495","amp;dn":"GirlsDoPorn+-+Years+Old","amp;tr":["udp%3A%2F%2Ftracker.openbittorrent.com%3A80","udp%3A%2F%2Fopen.demonii.com%3A1337","udp%3A%2F%2Ftracker.coppersurfer.tk%3A6969","udp%3A%2F%2Fexodus.desync.com%3A6969"],"infoHash":"825372654ada745722a2e2fa70e47797ff0f5495","infoHashBuffer":{"type":"Buffer","data":[130,83,114,101,74,218,116,87,34,162,226,250,112,228,119,151,255,15,84,149]},"announce":[],"urlList":[]}}